<svg width="407" height="129" viewBox="0 0 407 129" fill="none" xmlns="http://www.w3.org/2000/svg">
    <mask id="path-1-inside-1_3_145" fill="white">
        <path fill-rule="evenodd" clip-rule="evenodd" d="M407 50.3563V126.2C407 127.746 405.746 129 404.2 129H2.79998C1.25359 129 0 127.746 0 126.2V52.0936C0 50.5472 1.2536 49.2936 2.8 49.2936H226.012L313.358 0.419903C313.786 0.15372 314.292 0 314.833 0H404.2C405.746 0 407 1.2536 407 2.8V50.3376C407 50.3439 407 50.3501 407 50.3563Z"/>
    </mask>
    <path d="M226.012 49.2936V50.2936H226.272L226.5 50.1662L226.012 49.2936ZM313.358 0.419903L313.846 1.29258L313.866 1.2814L313.886 1.26931L313.358 0.419903ZM406 50.3563V126.2H408V50.3563H406ZM406 126.2C406 127.194 405.194 128 404.2 128V130C406.299 130 408 128.299 408 126.2H406ZM404.2 128H2.79998V130H404.2V128ZM2.79998 128C1.80588 128 1 127.194 1 126.2H-1C-1 128.299 0.701296 130 2.79998 130V128ZM1 126.2V52.0936H-1V126.2H1ZM1 52.0936C1 51.0995 1.80589 50.2936 2.8 50.2936V48.2936C0.701319 48.2936 -1 49.9949 -1 52.0936H1ZM2.8 50.2936H226.012V48.2936H2.8V50.2936ZM226.5 50.1662L313.846 1.29258L312.87 -0.452774L225.523 48.4209L226.5 50.1662ZM313.886 1.26931C314.16 1.09871 314.484 1 314.833 1V-1C314.1 -1 313.412 -0.791271 312.83 -0.429508L313.886 1.26931ZM314.833 1H404.2V-1H314.833V1ZM404.2 1C405.194 1 406 1.8059 406 2.8H408C408 0.701307 406.299 -1 404.2 -1V1ZM406 2.8V50.3376H408V2.8H406ZM406 50.3376C406 50.3376 406 50.3378 406 50.3386C406 50.3395 406 50.3404 406 50.3421C406 50.3448 406 50.3503 406 50.3563H408C408 50.3564 408 50.3561 408 50.3553C408 50.3545 408 50.3535 408 50.3519C408 50.3492 408 50.3436 408 50.3376H406Z" fill="#EFFFFA" mask="url(#path-1-inside-1_3_145)"/>
    <circle cx="325" cy="35" r="9.5" stroke="#EFFFFA"/>
    <path d="M319.4 37.88C319.952 37.88 320.333 38.501 320.639 38.9C320.909 39.2509 321.406 40.3422 321.892 40.4C322.185 40.4348 323.367 41.4244 323.554 41.66C323.747 41.9037 324.678 42.2 325.156 42.2C326.523 42.2 327.348 41.5751 328.479 40.94C328.778 40.772 329.064 40.5747 329.303 40.3333C329.589 40.0446 329.491 39.7634 329.633 39.44C329.887 38.8623 330.2 38.0293 330.2 37.4" stroke="#EFFFFA" stroke-linecap="round"/>
    <path d="M320.6 30.2C320.064 30.2871 319.536 31.0261 319.449 31.4129C319.368 31.777 318.767 32.0296 318.743 32.4065C318.714 32.848 318.907 33.4252 318.6 33.8" stroke="#EFFFFA" stroke-linecap="round"/>
    <path d="M317.4 30.6C317.741 30.6 318.287 31.0063 318.4 31.3384C318.593 31.9048 319.257 32.1653 319.557 32.6786C319.722 32.9608 320.117 33.1677 320.367 33.4034C320.602 33.6247 321.4 33.2374 321.4 33.8" stroke="#EFFFFA" stroke-linecap="round"/>
    <path d="M331.8 30.6C330.931 30.6 330.25 31.0559 329.535 31.4303C328.995 31.7127 328.071 32.5431 327.8 33" stroke="#EFFFFA" stroke-linecap="round"/>
    <path d="M328.2 29.8C328.266 30.4921 328.732 31.6903 329.193 32.2316C329.539 32.6365 329.848 33.0266 330.303 33.3251C330.643 33.5482 331.265 33.7751 331.4 34.2" stroke="#EFFFFA" stroke-linecap="round"/>
    <circle cx="355" cy="35" r="9.5" stroke="#EFFFFA"/>
    <path d="M349.4 37.88C349.952 37.88 350.333 38.501 350.639 38.9C350.909 39.2509 351.406 40.3422 351.892 40.4C352.185 40.4348 353.367 41.4244 353.554 41.66C353.747 41.9037 354.678 42.2 355.156 42.2C356.523 42.2 357.348 41.5751 358.479 40.94C358.778 40.772 359.064 40.5747 359.303 40.3333C359.589 40.0446 359.491 39.7634 359.633 39.44C359.887 38.8623 360.2 38.0293 360.2 37.4" stroke="#EFFFFA" stroke-linecap="round"/>
    <path d="M350.6 30.2C350.064 30.2871 349.536 31.0261 349.449 31.4129C349.368 31.777 348.767 32.0296 348.743 32.4065C348.714 32.848 348.907 33.4252 348.6 33.8" stroke="#EFFFFA" stroke-linecap="round"/>
    <path d="M347.4 30.6C347.741 30.6 348.287 31.0063 348.4 31.3384C348.593 31.9048 349.257 32.1653 349.557 32.6786C349.722 32.9608 350.117 33.1677 350.367 33.4034C350.602 33.6247 351.4 33.2374 351.4 33.8" stroke="#EFFFFA" stroke-linecap="round"/>
    <path d="M361.8 30.6C360.931 30.6 360.25 31.0559 359.535 31.4303C358.995 31.7127 358.071 32.5431 357.8 33" stroke="#EFFFFA" stroke-linecap="round"/>
    <path d="M358.2 29.8C358.266 30.4921 358.732 31.6903 359.193 32.2316C359.539 32.6365 359.848 33.0266 360.303 33.3251C360.643 33.5482 361.265 33.7751 361.4 34.2" stroke="#EFFFFA" stroke-linecap="round"/>
    <circle cx="385" cy="35" r="9.5" stroke="#EFFFFA"/>
    <path d="M379.4 37.88C379.952 37.88 380.333 38.501 380.639 38.9C380.909 39.2509 381.406 40.3422 381.892 40.4C382.185 40.4348 383.367 41.4244 383.554 41.66C383.747 41.9037 384.678 42.2 385.156 42.2C386.523 42.2 387.348 41.5751 388.479 40.94C388.778 40.772 389.064 40.5747 389.303 40.3333C389.589 40.0446 389.491 39.7634 389.633 39.44C389.887 38.8623 390.2 38.0293 390.2 37.4" stroke="#EFFFFA" stroke-linecap="round"/>
    <path d="M380.6 30.2C380.064 30.2871 379.536 31.0261 379.449 31.4129C379.368 31.777 378.767 32.0296 378.743 32.4065C378.714 32.848 378.907 33.4252 378.6 33.8" stroke="#EFFFFA" stroke-linecap="round"/>
    <path d="M377.4 30.6C377.741 30.6 378.287 31.0063 378.4 31.3384C378.593 31.9048 379.257 32.1653 379.557 32.6786C379.722 32.9608 380.117 33.1677 380.367 33.4034C380.602 33.6247 381.4 33.2374 381.4 33.8" stroke="#EFFFFA" stroke-linecap="round"/>
    <path d="M391.8 30.6C390.931 30.6 390.25 31.0559 389.535 31.4303C388.995 31.7127 388.071 32.5431 387.8 33" stroke="#EFFFFA" stroke-linecap="round"/>
    <path d="M388.2 29.8C388.266 30.4921 388.732 31.6903 389.193 32.2316C389.539 32.6365 389.848 33.0266 390.303 33.3251C390.643 33.5482 391.265 33.7751 391.4 34.2" stroke="#EFFFFA" stroke-linecap="round"/>
    <path fill-rule="evenodd" clip-rule="evenodd" d="M234.471 112H234V103H234.471V112ZM234.942 103H235.413V112H234.942V103ZM235.884 112H237.296V103H235.884V112ZM238.709 112H239.18V103H238.709V112ZM241.063 112H239.651V103H241.063V112ZM243.496 112V103H244.909V112H243.496ZM245.85 112V103H245.38V112H245.85ZM247.734 103V112H246.321V103H247.734ZM249.147 112H249.617V103H249.147V112ZM250.088 103V112H250.559V103H250.088ZM252.992 103H254.405V112H252.992V103ZM254.876 103V112H255.346V103H254.876ZM255.817 112H256.288V103H255.817V112ZM257.701 103H258.172V112H257.701V103ZM258.643 112H260.055V103H258.643V112ZM262.488 103V112H262.959V103H262.488ZM263.901 112H263.43V103H263.901V112ZM265.784 103V112H264.372V103H265.784ZM267.197 103V112H267.668V103H267.197ZM269.551 112H268.139V103H269.551V112ZM273.397 103V112H271.984V103H273.397ZM274.339 103V112H273.868V103H274.339ZM274.809 112V103H275.28V112H274.809ZM277.164 112V103H275.751V112H277.164ZM279.047 103H278.577V112H279.047V103ZM282.893 103H281.48V112H282.893V103ZM283.835 112V103H283.364V112H283.835ZM284.776 112H284.306V103H284.776V112ZM286.189 103H286.66V112H286.189V103ZM287.131 112H288.543V103H287.131V112ZM290.976 103V112H291.447V103H290.976ZM291.918 112V103H293.331V112H291.918ZM294.272 112H293.802V103H294.272V112ZM296.156 103H295.685V112H296.156V103ZM296.627 112V103H298.039V112H296.627ZM300.472 112H300.943V103H300.472V112ZM302.827 103H301.414V112H302.827V103ZM303.769 112H303.298V103H303.769V112ZM305.181 112V103H305.652V112H305.181ZM306.123 112H307.536V103H306.123V112ZM309.968 103V112H310.439V103H309.968ZM310.91 112V103H312.323V112H310.91ZM313.265 112V103H312.794V112H313.265ZM316.09 103V112H314.677V103H316.09ZM317.032 112H316.561V103H317.032V112ZM319.464 103V112H319.935V103H319.464ZM320.877 112V103H320.406V112H320.877ZM322.761 112H321.348V103H322.761V112ZM324.644 103V112H323.231V103H324.644ZM326.057 103V112H326.528V103H326.057ZM328.961 103H330.373V112H328.961V103ZM331.786 112V103H332.257V112H331.786ZM333.198 103H332.728V112H333.198V103ZM335.082 103V112H333.669V103H335.082ZM335.553 103V112H336.024V103H335.553ZM338.457 103H339.869V112H338.457V103ZM340.811 103V112H340.34V103H340.811ZM341.282 112H342.694V103H341.282V112ZM343.165 103V112H343.636V103H343.165ZM345.52 112H345.049V103H345.52V112ZM347.953 112H348.423V103H347.953V112ZM348.894 103V112H349.365V103H348.894ZM351.249 103V112H349.836V103H351.249ZM352.191 103V112H351.72V103H352.191ZM353.603 112H355.016V103H353.603V112ZM357.92 103H357.449V112H357.92V103ZM359.803 103H358.39V112H359.803V103ZM360.745 112H360.274V103H360.745V112ZM361.216 103V112H361.687V103H361.216ZM363.099 112V103H364.512V112H363.099ZM366.945 112H367.416V103H366.945V112ZM367.886 103V112H369.299V103H367.886ZM369.77 103H370.241V112H369.77V103ZM373.066 103V112H371.654V103H373.066ZM373.537 103H374.008V112H373.537V103ZM376.441 112H376.912V103H376.441V112ZM377.383 112H377.853V103H377.383V112ZM378.324 103H379.737V112H378.324V103ZM380.208 103H380.679V112H380.208V103ZM382.091 112H383.504V103H382.091V112ZM385.937 103H387.349V112H385.937V103ZM388.291 112V103H387.82V112H388.291ZM390.175 103V112H388.762V103H390.175ZM391.587 103V112H392.058V103H391.587ZM392.529 103V112H393V103H392.529Z" fill="#EFFFFA"/>
    <path fill-rule="evenodd" clip-rule="evenodd" d="M13 67H14.2996V92.5534H13V67ZM16.8988 92.5534V67H15.5992V92.5534H16.8988ZM22.0971 92.5534H18.1983V67H22.0971V92.5534ZM27.2954 92.5534H25.9959V67H27.2954V92.5534ZM28.595 92.5534H32.4938V67H28.595V92.5534ZM37.6921 67V92.5534H33.7934V67H37.6921ZM38.9917 67H40.2913V92.5534H38.9917V67ZM41.5909 92.5534H45.4896V67H41.5909V92.5534ZM50.688 67H49.3884V92.5534H50.688V67ZM53.2871 92.5534H51.9876V67H53.2871V92.5534ZM54.5867 92.5534V67H58.4855V92.5534H54.5867ZM59.7851 92.5534V67H61.0846V92.5534H59.7851ZM62.3842 67V92.5534H63.6838V67H62.3842ZM67.5826 92.5534H68.8822V67H67.5826V92.5534ZM74.0805 92.5534V67H70.1817V92.5534H74.0805ZM76.6797 67V92.5534H75.3801V67H76.6797ZM77.9793 92.5534V67H79.2788V92.5534H77.9793ZM84.4772 67H80.5784V92.5534H84.4772V67ZM88.3759 67V92.5534H89.6755V67H88.3759ZM90.9751 92.5534V67H94.8739V92.5534H90.9751ZM96.1735 92.5534H100.072V67H96.1735V92.5534ZM102.671 92.5534H101.372V67H102.671V92.5534ZM105.271 92.5534H103.971V67H105.271V92.5534ZM110.469 92.5534V67H106.57V92.5534H110.469ZM115.667 92.5534V67H114.368V92.5534H115.667ZM116.967 92.5534V67H120.866V92.5534H116.967ZM122.165 92.5534V67H123.465V92.5534H122.165ZM126.064 92.5534V67H124.764V92.5534H126.064ZM129.963 67V92.5534H131.262V67H129.963ZM136.461 67H132.562V92.5534H136.461V67ZM139.06 67V92.5534H137.76V67H139.06ZM144.258 67V92.5534H140.359V67H144.258ZM145.558 67V92.5534H146.857V67H145.558ZM150.756 67V92.5534H152.056V67H150.756ZM153.355 92.5534V67H157.254V92.5534H153.355ZM159.853 92.5534V67H158.554V92.5534H159.853ZM161.153 92.5534V67H165.051V92.5534H161.153ZM167.651 92.5534H166.351V67H167.651V92.5534ZM171.549 67V92.5534H172.849V67H171.549ZM178.047 67V92.5534H174.149V67H178.047ZM179.347 92.5534V67H180.646V92.5534H179.347ZM185.845 92.5534H181.946V67H185.845V92.5534ZM187.144 92.5534H188.444V67H187.144V92.5534ZM192.343 92.5534V67H196.242V92.5534H192.343ZM198.841 92.5534V67H197.541V92.5534H198.841ZM201.44 92.5534V67H200.14V92.5534H201.44ZM202.739 92.5534V67H204.039V92.5534H202.739ZM209.237 67H205.339V92.5534H209.237V67ZM214.436 67H210.537V92.5534H214.436V67ZM218.334 67H219.634V92.5534H218.334V67Z" fill="#EFFFFA"/>
    <path d="M13.0788 112V103.36H20.2788C20.5428 103.36 20.7828 103.424 20.9988 103.552C21.2228 103.68 21.3988 103.856 21.5268 104.08C21.6548 104.296 21.7188 104.536 21.7188 104.8V110.56C21.7188 110.824 21.6548 111.068 21.5268 111.292C21.3988 111.508 21.2228 111.68 20.9988 111.808C20.7828 111.936 20.5428 112 20.2788 112H13.0788ZM14.5188 111.028H20.2788C20.4068 111.028 20.5148 110.984 20.6028 110.896C20.6988 110.8 20.7468 110.688 20.7468 110.56V104.8C20.7468 104.672 20.6988 104.564 20.6028 104.476C20.5148 104.38 20.4068 104.332 20.2788 104.332H14.5188C14.3908 104.332 14.2788 104.38 14.1828 104.476C14.0948 104.564 14.0508 104.672 14.0508 104.8V110.56C14.0508 110.688 14.0948 110.8 14.1828 110.896C14.2788 110.984 14.3908 111.028 14.5188 111.028ZM23.0866 112V103.36H30.9706V104.332H24.0586V107.188H29.6146V108.172H24.0586V111.028H30.9706V112H23.0866ZM33.6301 112C33.3661 112 33.1221 111.936 32.8981 111.808C32.6821 111.68 32.5101 111.508 32.3821 111.292C32.2541 111.068 32.1901 110.824 32.1901 110.56V110.224H33.1621V110.56C33.1621 110.688 33.2061 110.8 33.2941 110.896C33.3901 110.984 33.5021 111.028 33.6301 111.028H39.3901C39.5181 111.028 39.6261 110.984 39.7141 110.896C39.8101 110.8 39.8581 110.688 39.8581 110.56V108.628C39.8581 108.5 39.8101 108.392 39.7141 108.304C39.6261 108.216 39.5181 108.172 39.3901 108.172H33.6301C33.3661 108.172 33.1221 108.108 32.8981 107.98C32.6821 107.844 32.5101 107.668 32.3821 107.452C32.2541 107.236 32.1901 106.996 32.1901 106.732V104.8C32.1901 104.536 32.2541 104.296 32.3821 104.08C32.5101 103.856 32.6821 103.68 32.8981 103.552C33.1221 103.424 33.3661 103.36 33.6301 103.36H39.3901C39.6541 103.36 39.8941 103.424 40.1101 103.552C40.3341 103.68 40.5101 103.856 40.6381 104.08C40.7661 104.296 40.8301 104.536 40.8301 104.8V105.136H39.8581V104.8C39.8581 104.672 39.8101 104.564 39.7141 104.476C39.6261 104.38 39.5181 104.332 39.3901 104.332H33.6301C33.5021 104.332 33.3901 104.38 33.2941 104.476C33.2061 104.564 33.1621 104.672 33.1621 104.8V106.732C33.1621 106.86 33.2061 106.968 33.2941 107.056C33.3901 107.144 33.5021 107.188 33.6301 107.188H39.3901C39.6541 107.188 39.8941 107.256 40.1101 107.392C40.3341 107.52 40.5101 107.692 40.6381 107.908C40.7661 108.124 40.8301 108.364 40.8301 108.628V110.56C40.8301 110.824 40.7661 111.068 40.6381 111.292C40.5101 111.508 40.3341 111.68 40.1101 111.808C39.8941 111.936 39.6541 112 39.3901 112H33.6301ZM42.2373 112V103.36H43.2213V112H42.2373ZM46.1237 112C45.8597 112 45.6157 111.936 45.3917 111.808C45.1757 111.68 45.0037 111.508 44.8757 111.292C44.7477 111.068 44.6837 110.824 44.6837 110.56V104.8C44.6837 104.536 44.7477 104.296 44.8757 104.08C45.0037 103.856 45.1757 103.68 45.3917 103.552C45.6157 103.424 45.8597 103.36 46.1237 103.36H51.8837C52.1477 103.36 52.3877 103.424 52.6037 103.552C52.8277 103.68 53.0037 103.856 53.1317 104.08C53.2597 104.296 53.3237 104.536 53.3237 104.8V105.148H52.3517V104.8C52.3517 104.672 52.3037 104.564 52.2077 104.476C52.1197 104.38 52.0117 104.332 51.8837 104.332H46.1237C45.9957 104.332 45.8837 104.38 45.7877 104.476C45.6997 104.564 45.6557 104.672 45.6557 104.8V110.56C45.6557 110.688 45.6997 110.8 45.7877 110.896C45.8837 110.984 45.9957 111.028 46.1237 111.028H51.8837C52.0117 111.028 52.1197 110.984 52.2077 110.896C52.3037 110.8 52.3517 110.688 52.3517 110.56V108.424H50.2157V107.44H53.3237V110.56C53.3237 110.824 53.2597 111.068 53.1317 111.292C53.0037 111.508 52.8277 111.68 52.6037 111.808C52.3877 111.936 52.1477 112 51.8837 112H46.1237ZM54.6447 112V103.36H55.9767L62.3127 110.896V103.36H63.2847V112H61.9527L55.6167 104.464V112H54.6447ZM64.653 112V103.36H72.537V104.332H65.625V107.188H71.181V108.172H65.625V111.028H72.537V112H64.653ZM73.8405 112V103.36H81.0405C81.3045 103.36 81.5445 103.424 81.7605 103.552C81.9845 103.68 82.1605 103.856 82.2885 104.08C82.4165 104.296 82.4805 104.536 82.4805 104.8V110.56C82.4805 110.824 82.4165 111.068 82.2885 111.292C82.1605 111.508 81.9845 111.68 81.7605 111.808C81.5445 111.936 81.3045 112 81.0405 112H73.8405ZM75.2805 111.028H81.0405C81.1685 111.028 81.2765 110.984 81.3645 110.896C81.4605 110.8 81.5085 110.688 81.5085 110.56V104.8C81.5085 104.672 81.4605 104.564 81.3645 104.476C81.2765 104.38 81.1685 104.332 81.0405 104.332H75.2805C75.1525 104.332 75.0405 104.38 74.9445 104.476C74.8565 104.564 74.8125 104.672 74.8125 104.8V110.56C74.8125 110.688 74.8565 110.8 74.9445 110.896C75.0405 110.984 75.1525 111.028 75.2805 111.028ZM87.1299 112V103.36H93.9579C94.2219 103.36 94.4619 103.424 94.6779 103.552C94.9019 103.68 95.0779 103.856 95.2059 104.08C95.3339 104.296 95.3979 104.536 95.3979 104.8V106.636C95.3979 106.748 95.3819 106.86 95.3499 106.972C95.3259 107.076 95.2899 107.176 95.2419 107.272C95.4179 107.536 95.5499 107.764 95.6379 107.956C95.7259 108.148 95.7699 108.344 95.7699 108.544V110.56C95.7699 110.824 95.7059 111.068 95.5779 111.292C95.4499 111.508 95.2739 111.68 95.0499 111.808C94.8339 111.936 94.5939 112 94.3299 112H87.1299ZM88.5699 111.028H94.3299C94.4579 111.028 94.5659 110.984 94.6539 110.896C94.7499 110.8 94.7979 110.688 94.7979 110.56V108.544C94.7979 108.416 94.7499 108.308 94.6539 108.22C94.5659 108.124 94.4579 108.076 94.3299 108.076H88.5699C88.4419 108.076 88.3299 108.124 88.2339 108.22C88.1459 108.308 88.1019 108.416 88.1019 108.544V110.56C88.1019 110.688 88.1459 110.8 88.2339 110.896C88.3299 110.984 88.4419 111.028 88.5699 111.028ZM88.5699 107.104H93.9579C94.0859 107.104 94.1939 107.06 94.2819 106.972C94.3699 106.876 94.4139 106.764 94.4139 106.636V104.8C94.4139 104.672 94.3699 104.564 94.2819 104.476C94.1939 104.38 94.0859 104.332 93.9579 104.332H88.5699C88.4419 104.332 88.3299 104.38 88.2339 104.476C88.1459 104.564 88.1019 104.672 88.1019 104.8V106.636C88.1019 106.764 88.1459 106.876 88.2339 106.972C88.3299 107.06 88.4419 107.104 88.5699 107.104ZM100.387 112V108.748L96.4153 103.36H97.5312L100.879 107.584L104.191 103.36H105.331L101.359 108.748V112H100.387ZM109.677 108.94V107.956H114.357V108.94H109.677ZM119.122 112V103.348H120.094V111.028H127.762V112H119.122ZM129.877 112C129.613 112 129.369 111.936 129.145 111.808C128.929 111.68 128.757 111.508 128.629 111.292C128.501 111.068 128.437 110.824 128.437 110.56V103.36H129.409V110.56C129.409 110.688 129.453 110.8 129.541 110.896C129.637 110.984 129.749 111.028 129.877 111.028H135.637C135.765 111.028 135.873 110.984 135.961 110.896C136.057 110.8 136.105 110.688 136.105 110.56V103.36H137.077V110.56C137.077 110.824 137.013 111.068 136.885 111.292C136.757 111.508 136.581 111.68 136.357 111.808C136.141 111.936 135.901 112 135.637 112H129.877ZM138.519 112V103.36H139.503V112H138.519ZM142.345 112C142.081 112 141.837 111.936 141.613 111.808C141.397 111.68 141.225 111.508 141.097 111.292C140.969 111.068 140.905 110.824 140.905 110.56V110.224H141.877V110.56C141.877 110.688 141.921 110.8 142.009 110.896C142.105 110.984 142.217 111.028 142.345 111.028H148.105C148.233 111.028 148.341 110.984 148.429 110.896C148.525 110.8 148.573 110.688 148.573 110.56V108.628C148.573 108.5 148.525 108.392 148.429 108.304C148.341 108.216 148.233 108.172 148.105 108.172H142.345C142.081 108.172 141.837 108.108 141.613 107.98C141.397 107.844 141.225 107.668 141.097 107.452C140.969 107.236 140.905 106.996 140.905 106.732V104.8C140.905 104.536 140.969 104.296 141.097 104.08C141.225 103.856 141.397 103.68 141.613 103.552C141.837 103.424 142.081 103.36 142.345 103.36H148.105C148.369 103.36 148.609 103.424 148.825 103.552C149.049 103.68 149.225 103.856 149.353 104.08C149.481 104.296 149.545 104.536 149.545 104.8V105.136H148.573V104.8C148.573 104.672 148.525 104.564 148.429 104.476C148.341 104.38 148.233 104.332 148.105 104.332H142.345C142.217 104.332 142.105 104.38 142.009 104.476C141.921 104.564 141.877 104.672 141.877 104.8V106.732C141.877 106.86 141.921 106.968 142.009 107.056C142.105 107.144 142.217 107.188 142.345 107.188H148.105C148.369 107.188 148.609 107.256 148.825 107.392C149.049 107.52 149.225 107.692 149.353 107.908C149.481 108.124 149.545 108.364 149.545 108.628V110.56C149.545 110.824 149.481 111.068 149.353 111.292C149.225 111.508 149.049 111.68 148.825 111.808C148.609 111.936 148.369 112 148.105 112H142.345ZM154.126 112V104.8C154.126 104.536 154.19 104.296 154.318 104.08C154.446 103.856 154.618 103.68 154.834 103.552C155.058 103.424 155.302 103.36 155.566 103.36H161.326C161.59 103.36 161.83 103.424 162.046 103.552C162.27 103.68 162.446 103.856 162.574 104.08C162.702 104.296 162.766 104.536 162.766 104.8V112H161.794V108.844H155.098V112H154.126ZM155.098 107.872H161.794V104.8C161.794 104.672 161.746 104.564 161.65 104.476C161.562 104.38 161.454 104.332 161.326 104.332H155.566C155.438 104.332 155.326 104.38 155.23 104.476C155.142 104.564 155.098 104.672 155.098 104.8V107.872ZM164.145 112V103.348H165.117V111.028H172.785V112H164.145ZM173.509 112V103.36H181.393V104.332H174.481V107.188H180.037V108.172H174.481V112H173.509ZM182.18 112V103.36H190.064V104.332H183.152V107.188H188.708V108.172H183.152V111.028H190.064V112H182.18ZM198.64 112L195.82 108.64H197.092L199.924 111.988V112H198.64ZM191.344 112V103.372H198.544C198.808 103.372 199.048 103.44 199.264 103.576C199.488 103.704 199.664 103.876 199.792 104.092C199.92 104.308 199.984 104.548 199.984 104.812V107.344C199.984 107.608 199.92 107.848 199.792 108.064C199.664 108.28 199.488 108.456 199.264 108.592C199.048 108.72 198.808 108.784 198.544 108.784H192.316V112H191.344ZM192.784 107.8H198.544C198.672 107.8 198.78 107.756 198.868 107.668C198.964 107.58 199.012 107.472 199.012 107.344V104.812C199.012 104.684 198.964 104.576 198.868 104.488C198.78 104.392 198.672 104.344 198.544 104.344H192.784C192.656 104.344 192.544 104.392 192.448 104.488C192.36 104.576 192.316 104.684 192.316 104.812V107.344C192.316 107.472 192.36 107.58 192.448 107.668C192.544 107.756 192.656 107.8 192.784 107.8ZM201.27 112V103.36H209.154V104.332H202.242V107.188H207.798V108.172H202.242V111.028H209.154V112H201.27ZM210.374 112V110.668L217.91 104.332H210.374V103.36H219.014V104.692L211.478 111.028H219.014V112H210.374Z" fill="#EFFFFA"/>
    <path d="M260.976 64.74C260.832 65.532 260.724 67.26 260.688 68.34C260.688 69.96 260.688 72.444 260.688 74.928C260.688 78.852 261.264 86.052 261.264 89.22C261.264 92.136 259.464 94.656 254.676 94.656C249.672 94.656 246.036 93.108 246.036 89.004C246.036 85.728 248.844 83.1 255.072 83.1C262.2 83.1 268.608 86.7 272.28 90.048L270.552 92.748C266.952 89.148 261.048 85.62 254.748 85.62C251.004 85.62 248.88 86.88 248.88 88.896C248.88 90.876 250.896 91.992 254.388 91.992C257.016 91.992 258.312 90.732 258.312 88.248C258.312 85.584 257.88 78.6 257.88 74.928C257.88 72.84 257.844 69.888 257.844 68.34C257.808 67.008 257.7 65.424 257.556 64.74H260.976ZM259.104 72.012C261.588 72.012 267.456 71.832 271.344 71.364L271.452 74.064C267.564 74.424 261.696 74.676 259.104 74.676V72.012ZM285.852 66.756C286.5 66.828 287.364 66.864 288.372 66.864C290.244 66.864 298.488 66.648 300.756 66.504C301.368 66.468 302.232 66.324 302.772 66.18L304.464 68.304C303.996 68.52 303.276 69.06 302.88 69.312C300.216 71.544 295.932 75.108 292.944 77.52C294.888 76.8 296.652 76.584 298.092 76.584C304.032 76.584 308.136 79.932 308.136 84.828C308.136 91.704 301.368 95.412 289.416 94.476L288.624 91.524C298.596 92.748 305.148 90.12 305.148 84.792C305.148 81.336 302.196 78.96 297.552 78.96C291.36 78.96 288.084 82.128 283.548 86.412L281.352 84.18C286.644 80.076 296.112 72.12 299.208 69.024C296.976 69.132 290.244 69.384 288.444 69.492C287.652 69.564 286.644 69.672 285.924 69.744L285.852 66.756ZM337.584 65.136C337.332 66.036 337.116 67.296 336.936 67.98C335.64 73.92 333.12 81.444 330.24 85.404C327.504 89.22 324.876 91.92 321.6 91.92C318.864 91.92 316.56 89.652 316.56 85.44C316.56 80.904 319.332 76.116 323.148 73.56C326.712 71.148 330.24 70.212 333.948 70.212C341.004 70.212 346.116 74.964 346.116 81.984C346.116 89.184 340.968 93.54 333.228 94.62L331.572 92.064C339.096 91.38 343.236 87.456 343.236 81.876C343.236 76.584 339.42 72.696 333.624 72.696C330.132 72.696 327 73.884 324.192 75.972C321.132 78.168 319.188 82.02 319.188 85.26C319.188 87.636 320.232 89.076 321.852 89.076C324.192 89.076 326.712 86.016 328.548 83.1C330.924 79.428 333.336 72.84 334.236 67.584C334.38 66.864 334.488 65.676 334.452 64.848L337.584 65.136ZM322.824 66.792C323.004 67.764 323.292 68.952 323.58 69.96C324.516 73.488 326.532 79.032 328.044 81.552C329.268 83.64 330.96 86.016 332.688 87.672L330.42 89.508C328.98 87.924 327.648 86.16 326.28 83.82C324.516 81.012 322.428 75.504 321.06 71.004C320.7 69.852 320.304 68.664 319.836 67.728L322.824 66.792ZM355.944 68.34C360.948 68.952 365.664 69.024 369.336 68.664C372.288 68.412 375.24 67.8 377.832 66.936L378.228 69.564C375.888 70.248 372.828 70.86 369.948 71.112C366.312 71.472 361.272 71.472 356.124 70.968L355.944 68.34ZM355.224 75.72C361.38 76.368 367.5 76.26 371.712 75.756C375.132 75.396 378.048 74.676 379.956 74.1L380.424 76.764C378.444 77.304 375.708 77.844 372.684 78.204C368.256 78.78 361.596 78.888 355.404 78.42L355.224 75.72ZM367.536 67.872C367.248 66.828 366.924 65.712 366.528 64.668L369.588 64.272C369.948 67.296 371.064 70.932 371.964 73.488C372.936 76.296 374.52 79.752 376.392 82.524C376.788 83.1 377.22 83.604 377.76 84.072L376.248 86.268C374.232 85.764 370.884 85.404 368.4 85.152L368.616 82.956C370.56 83.136 372.9 83.388 374.016 83.532C372.036 80.436 370.524 76.98 369.48 74.064C368.58 71.58 368.04 69.672 367.536 67.872ZM360.48 83.496C359.616 84.72 358.968 85.944 358.968 87.564C358.968 90.516 361.596 92.028 367.248 92.028C370.596 92.028 373.224 91.776 375.852 91.272L375.708 94.116C373.188 94.548 370.38 94.764 367.284 94.764C360.264 94.764 356.304 92.676 356.232 88.032C356.232 85.98 356.844 84.468 357.672 82.884L360.48 83.496Z" fill="#EFFFFA"/>
</svg>

