<svg width="17" height="154" viewBox="0 0 17 154" fill="none" xmlns="http://www.w3.org/2000/svg">
    <path d="M17 153.494L10.652 153.494C10.054 153.494 9.51733 153.348 9.042 153.057C8.56667 152.765 8.191 152.382 7.915 151.907C7.62367 151.431 7.478 150.902 7.478 150.32L7.478 140.384C7.478 140.307 7.455 140.246 7.409 140.2C7.34767 140.138 7.27867 140.108 7.202 140.108L3.729 140.108C3.65233 140.108 3.591 140.138 3.545 140.2C3.48366 140.246 3.453 140.307 3.453 140.384L3.453 150.205C3.453 150.281 3.48367 150.35 3.545 150.412C3.591 150.458 3.65233 150.481 3.729 150.481L4.856 150.481L4.856 153.494L3.614 153.494C3.016 153.494 2.47933 153.348 2.004 153.057C1.52867 152.765 1.153 152.382 0.876999 151.907C0.585666 151.431 0.439999 150.902 0.439999 150.32L0.439999 140.269C0.439999 139.686 0.585665 139.157 0.876998 138.682C1.153 138.191 1.52867 137.808 2.004 137.532C2.47933 137.24 3.016 137.095 3.614 137.095L7.34 137.095C7.90733 137.095 8.43633 137.24 8.927 137.532C9.40233 137.808 9.78567 138.191 10.077 138.682C10.3683 139.157 10.514 139.686 10.514 140.269L10.514 150.205C10.514 150.281 10.5447 150.35 10.606 150.412C10.652 150.458 10.7133 150.481 10.79 150.481L13.711 150.481C13.7877 150.481 13.8567 150.458 13.918 150.412C13.964 150.35 13.987 150.281 13.987 150.205L13.987 137.095L17 137.095L17 153.494ZM17 131.228C17 131.811 16.8467 132.34 16.54 132.815C16.218 133.29 15.804 133.674 15.298 133.965C14.792 134.256 14.2553 134.402 13.688 134.402L3.683 134.402C3.085 134.402 2.54833 134.256 2.073 133.965C1.58233 133.674 1.19133 133.29 0.899998 132.815C0.593331 132.34 0.439998 131.811 0.439998 131.228L0.439998 121.177C0.439998 120.594 0.593331 120.065 0.899997 119.59C1.19133 119.115 1.58233 118.731 2.073 118.44C2.54833 118.149 3.085 118.003 3.683 118.003L13.688 118.003C14.2553 118.003 14.792 118.149 15.298 118.44C15.804 118.731 16.218 119.115 16.54 119.59C16.8467 120.065 17 120.594 17 121.177L17 131.228ZM13.826 130.009L13.826 121.292C13.826 121.215 13.803 121.154 13.757 121.108C13.6957 121.047 13.6267 121.016 13.55 121.016L6.328 121.016L13.826 130.009ZM11.02 131.389L3.522 122.396L3.522 131.113C3.522 131.19 3.55267 131.259 3.614 131.32C3.66 131.366 3.72133 131.389 3.798 131.389L11.02 131.389ZM17 105.698L3.706 105.698C3.62933 105.698 3.568 105.729 3.522 105.79C3.46066 105.836 3.43 105.898 3.43 105.974L3.43 116.462L0.416998 116.462L0.416997 105.859C0.416997 105.277 0.562664 104.748 0.853997 104.272C1.13 103.782 1.50566 103.398 1.981 103.122C2.45633 102.831 2.993 102.685 3.591 102.685L17 102.685L17 105.698ZM17 90.5147L3.706 90.5147C3.62933 90.5147 3.568 90.5453 3.522 90.6067C3.46066 90.6527 3.43 90.714 3.43 90.7907L3.43 101.279L0.416997 101.279L0.416997 90.6757C0.416997 90.093 0.562663 89.564 0.853997 89.0887C1.13 88.598 1.50566 88.2147 1.981 87.9387C2.45633 87.6473 2.993 87.5017 3.591 87.5017L17 87.5017L17 90.5147ZM17 84.9221L13.987 84.9221L13.987 81.9091L17 81.9091L17 84.9221ZM17 76.4681C17 77.0508 16.8467 77.5798 16.54 78.0551C16.218 78.5305 15.804 78.9138 15.298 79.2051C14.792 79.4965 14.2553 79.6421 13.688 79.6421L3.683 79.6421C3.085 79.6421 2.54833 79.4965 2.073 79.2051C1.58233 78.9138 1.19133 78.5305 0.899995 78.0551C0.593329 77.5798 0.439996 77.0508 0.439996 76.4681L0.439995 66.4171C0.439995 65.8345 0.593329 65.3055 0.899995 64.8301C1.19133 64.3548 1.58233 63.9715 2.07299 63.6801C2.54833 63.3888 3.085 63.2431 3.68299 63.2431L13.688 63.2431C14.2553 63.2431 14.792 63.3888 15.298 63.6801C15.804 63.9715 16.218 64.3548 16.54 64.8301C16.8467 65.3055 17 65.8345 17 66.4171L17 76.4681ZM13.826 75.2491L13.826 66.5321C13.826 66.4555 13.803 66.3941 13.757 66.3481C13.6957 66.2868 13.6267 66.2561 13.55 66.2561L6.328 66.2561L13.826 75.2491ZM11.02 76.6291L3.522 67.6361L3.522 76.3531C3.522 76.4298 3.55266 76.4988 3.614 76.5601C3.66 76.6061 3.72133 76.6291 3.798 76.6291L11.02 76.6291ZM17 60.4605L10.652 60.4605C10.054 60.4605 9.51733 60.3148 9.042 60.0235C8.56666 59.7322 8.191 59.3488 7.915 58.8735C7.62366 58.3982 7.47799 57.8692 7.47799 57.2865L7.47799 47.3505C7.47799 47.2738 7.45499 47.2125 7.40899 47.1665C7.34766 47.1051 7.27866 47.0745 7.20199 47.0745L3.72899 47.0745C3.65233 47.0745 3.59099 47.1051 3.54499 47.1665C3.48366 47.2125 3.45299 47.2738 3.45299 47.3505L3.45299 57.1715C3.45299 57.2482 3.48366 57.3172 3.54499 57.3785C3.591 57.4245 3.65233 57.4475 3.729 57.4475L4.856 57.4475L4.856 60.4605L3.614 60.4605C3.01599 60.4605 2.47933 60.3148 2.004 60.0235C1.52866 59.7322 1.153 59.3488 0.876995 58.8735C0.585662 58.3982 0.439995 57.8692 0.439995 57.2865L0.439995 47.2355C0.439995 46.6528 0.585661 46.1238 0.876994 45.6485C1.15299 45.1578 1.52866 44.7745 2.00399 44.4985C2.47933 44.2071 3.01599 44.0615 3.61399 44.0615L7.33999 44.0615C7.90733 44.0615 8.43633 44.2071 8.92699 44.4985C9.40233 44.7745 9.78566 45.1578 10.077 45.6485C10.3683 46.1238 10.514 46.6528 10.514 47.2355L10.514 57.1715C10.514 57.2482 10.5447 57.3172 10.606 57.3785C10.652 57.4245 10.7133 57.4475 10.79 57.4475L13.711 57.4475C13.7877 57.4475 13.8567 57.4245 13.918 57.3785C13.964 57.3171 13.987 57.2482 13.987 57.1715L13.987 44.0615L17 44.0615L17 60.4605ZM17 41.4377L13.987 41.4377L13.987 38.4247L17 38.4247L17 41.4377ZM17 32.9837C17 33.5664 16.8467 34.0954 16.54 34.5707C16.218 35.0461 15.804 35.4294 15.298 35.7207C14.792 36.0121 14.2553 36.1577 13.688 36.1577L3.68299 36.1577C3.08499 36.1577 2.54833 36.0121 2.07299 35.7207C1.58233 35.4294 1.19133 35.0461 0.899994 34.5707C0.593327 34.0954 0.439994 33.5664 0.439994 32.9837L0.439993 22.9327C0.439993 22.3501 0.593327 21.8211 0.899993 21.3457C1.19133 20.8704 1.58233 20.4871 2.07299 20.1957C2.54833 19.9044 3.08499 19.7587 3.68299 19.7587L13.688 19.7587C14.2553 19.7587 14.792 19.9044 15.298 20.1957C15.804 20.4871 16.218 20.8704 16.54 21.3457C16.8467 21.8211 17 22.3501 17 22.9327L17 32.9837ZM13.826 31.7647L13.826 23.0477C13.826 22.9711 13.803 22.9097 13.757 22.8637C13.6957 22.8024 13.6267 22.7717 13.55 22.7717L6.32799 22.7717L13.826 31.7647ZM11.02 33.1447L3.52199 24.1517L3.52199 32.8687C3.52199 32.9454 3.55266 33.0144 3.61399 33.0757C3.65999 33.1217 3.72133 33.1447 3.79799 33.1447L11.02 33.1447ZM17 16.9761L10.652 16.9761C10.054 16.9761 9.51733 16.8304 9.04199 16.5391C8.56666 16.2478 8.19099 15.8644 7.91499 15.3891C7.62366 14.9138 7.47799 14.3848 7.47799 13.8021L7.47799 3.86611C7.47799 3.78944 7.45499 3.72811 7.40899 3.68211C7.34766 3.62077 7.27866 3.59011 7.20199 3.59011L3.72899 3.59011C3.65233 3.59011 3.59099 3.62077 3.54499 3.68211C3.48366 3.72811 3.45299 3.78944 3.45299 3.86611L3.45299 13.6871C3.45299 13.7638 3.48366 13.8328 3.54499 13.8941C3.59099 13.9401 3.65233 13.9631 3.72899 13.9631L4.85599 13.9631L4.85599 16.9761L3.61399 16.9761C3.01599 16.9761 2.47933 16.8304 2.00399 16.5391C1.52866 16.2478 1.15299 15.8644 0.876993 15.3891C0.58566 14.9138 0.439993 14.3848 0.439993 13.8021L0.439993 3.75111C0.439993 3.16844 0.585659 2.63944 0.876992 2.16411C1.15299 1.67344 1.52866 1.29011 2.00399 1.01411C2.47933 0.722775 3.01599 0.577108 3.61399 0.577108L7.33999 0.577108C7.90733 0.577108 8.43633 0.722774 8.92699 1.01411C9.40233 1.29011 9.78566 1.67344 10.077 2.16411C10.3683 2.63944 10.514 3.16844 10.514 3.75111L10.514 13.6871C10.514 13.7638 10.5447 13.8328 10.606 13.8941C10.652 13.9401 10.7133 13.9631 10.79 13.9631L13.711 13.9631C13.7877 13.9631 13.8567 13.9401 13.918 13.8941C13.964 13.8328 13.987 13.7638 13.987 13.6871L13.987 0.577108L17 0.577107L17 16.9761Z" fill="#EFFFFA"/>
</svg>

