<svg width="23" height="697" viewBox="0 0 23 697" fill="none" xmlns="http://www.w3.org/2000/svg">
    <path d="M23 153.494L16.652 153.494C16.054 153.494 15.5173 153.348 15.042 153.057C14.5667 152.765 14.191 152.382 13.915 151.907C13.6237 151.431 13.478 150.902 13.478 150.32L13.478 140.384C13.478 140.307 13.455 140.246 13.409 140.2C13.3477 140.138 13.2787 140.108 13.202 140.108L9.729 140.108C9.65233 140.108 9.591 140.138 9.545 140.2C9.48366 140.246 9.453 140.307 9.453 140.384L9.453 150.205C9.453 150.281 9.48367 150.35 9.545 150.412C9.591 150.458 9.65233 150.481 9.729 150.481L10.856 150.481L10.856 153.494L9.614 153.494C9.016 153.494 8.47933 153.348 8.004 153.057C7.52867 152.765 7.153 152.382 6.877 151.907C6.58567 151.431 6.44 150.902 6.44 150.32L6.44 140.269C6.44 139.686 6.58567 139.157 6.877 138.682C7.153 138.191 7.52867 137.808 8.004 137.532C8.47933 137.24 9.016 137.095 9.614 137.095L13.34 137.095C13.9073 137.095 14.4363 137.24 14.927 137.532C15.4023 137.808 15.7857 138.191 16.077 138.682C16.3683 139.157 16.514 139.686 16.514 140.269L16.514 150.205C16.514 150.281 16.5447 150.35 16.606 150.412C16.652 150.458 16.7133 150.481 16.79 150.481L19.711 150.481C19.7877 150.481 19.8567 150.458 19.918 150.412C19.964 150.35 19.987 150.281 19.987 150.205L19.987 137.095L23 137.095L23 153.494ZM23 131.228C23 131.811 22.8467 132.34 22.54 132.815C22.218 133.29 21.804 133.674 21.298 133.965C20.792 134.256 20.2553 134.402 19.688 134.402L9.683 134.402C9.085 134.402 8.54833 134.256 8.073 133.965C7.58233 133.674 7.19133 133.29 6.9 132.815C6.59333 132.34 6.44 131.811 6.44 131.228L6.44 121.177C6.44 120.594 6.59333 120.065 6.9 119.59C7.19133 119.115 7.58233 118.731 8.073 118.44C8.54833 118.149 9.085 118.003 9.683 118.003L19.688 118.003C20.2553 118.003 20.792 118.149 21.298 118.44C21.804 118.731 22.218 119.115 22.54 119.59C22.8467 120.065 23 120.594 23 121.177L23 131.228ZM19.826 130.009L19.826 121.292C19.826 121.215 19.803 121.154 19.757 121.108C19.6957 121.047 19.6267 121.016 19.55 121.016L12.328 121.016L19.826 130.009ZM17.02 131.389L9.522 122.396L9.522 131.113C9.522 131.19 9.55267 131.259 9.614 131.32C9.66 131.366 9.72133 131.389 9.798 131.389L17.02 131.389ZM23 105.698L9.706 105.698C9.62933 105.698 9.568 105.729 9.522 105.79C9.46066 105.836 9.43 105.898 9.43 105.974L9.43 116.462L6.417 116.462L6.417 105.859C6.417 105.277 6.56266 104.748 6.854 104.272C7.13 103.782 7.50566 103.398 7.981 103.122C8.45633 102.831 8.993 102.685 9.591 102.685L23 102.685L23 105.698ZM23 90.5147L9.706 90.5147C9.62933 90.5147 9.568 90.5453 9.522 90.6067C9.46066 90.6527 9.43 90.714 9.43 90.7907L9.43 101.279L6.417 101.279L6.417 90.6757C6.417 90.093 6.56266 89.564 6.854 89.0887C7.13 88.598 7.50566 88.2147 7.981 87.9387C8.45633 87.6473 8.993 87.5017 9.591 87.5017L23 87.5017L23 90.5147ZM23 84.9221L19.987 84.9221L19.987 81.9091L23 81.9091L23 84.9221ZM23 76.4681C23 77.0508 22.8467 77.5798 22.54 78.0551C22.218 78.5305 21.804 78.9138 21.298 79.2051C20.792 79.4965 20.2553 79.6421 19.688 79.6421L9.683 79.6421C9.085 79.6421 8.54833 79.4965 8.073 79.2051C7.58233 78.9138 7.19133 78.5305 6.9 78.0551C6.59333 77.5798 6.44 77.0508 6.44 76.4681L6.44 66.4171C6.44 65.8345 6.59333 65.3055 6.89999 64.8301C7.19133 64.3548 7.58233 63.9715 8.07299 63.6801C8.54833 63.3888 9.085 63.2431 9.68299 63.2431L19.688 63.2431C20.2553 63.2431 20.792 63.3888 21.298 63.6801C21.804 63.9715 22.218 64.3548 22.54 64.8301C22.8467 65.3055 23 65.8345 23 66.4171L23 76.4681ZM19.826 75.2491L19.826 66.5321C19.826 66.4555 19.803 66.3941 19.757 66.3481C19.6957 66.2868 19.6267 66.2561 19.55 66.2561L12.328 66.2561L19.826 75.2491ZM17.02 76.6291L9.522 67.6361L9.522 76.3531C9.522 76.4298 9.55266 76.4988 9.614 76.5601C9.66 76.6061 9.72133 76.6291 9.798 76.6291L17.02 76.6291ZM23 60.4605L16.652 60.4605C16.054 60.4605 15.5173 60.3148 15.042 60.0235C14.5667 59.7322 14.191 59.3488 13.915 58.8735C13.6237 58.3982 13.478 57.8692 13.478 57.2865L13.478 47.3505C13.478 47.2738 13.455 47.2125 13.409 47.1665C13.3477 47.1051 13.2787 47.0745 13.202 47.0745L9.72899 47.0745C9.65233 47.0745 9.59099 47.1051 9.54499 47.1665C9.48366 47.2125 9.45299 47.2738 9.45299 47.3505L9.45299 57.1715C9.45299 57.2482 9.48366 57.3172 9.54499 57.3785C9.591 57.4245 9.65233 57.4475 9.729 57.4475L10.856 57.4475L10.856 60.4605L9.614 60.4605C9.01599 60.4605 8.47933 60.3148 8.004 60.0235C7.52866 59.7322 7.153 59.3488 6.87699 58.8735C6.58566 58.3982 6.44 57.8692 6.43999 57.2865L6.43999 47.2355C6.43999 46.6528 6.58566 46.1238 6.87699 45.6485C7.15299 45.1578 7.52866 44.7745 8.00399 44.4985C8.47933 44.2071 9.01599 44.0615 9.61399 44.0615L13.34 44.0615C13.9073 44.0615 14.4363 44.2071 14.927 44.4985C15.4023 44.7745 15.7857 45.1578 16.077 45.6485C16.3683 46.1238 16.514 46.6528 16.514 47.2355L16.514 57.1715C16.514 57.2482 16.5447 57.3172 16.606 57.3785C16.652 57.4245 16.7133 57.4475 16.79 57.4475L19.711 57.4475C19.7877 57.4475 19.8567 57.4245 19.918 57.3785C19.964 57.3171 19.987 57.2482 19.987 57.1715L19.987 44.0615L23 44.0615L23 60.4605ZM23 41.4377L19.987 41.4377L19.987 38.4247L23 38.4247L23 41.4377ZM23 32.9837C23 33.5664 22.8467 34.0954 22.54 34.5707C22.218 35.0461 21.804 35.4294 21.298 35.7207C20.792 36.0121 20.2553 36.1577 19.688 36.1577L9.68299 36.1577C9.08499 36.1577 8.54833 36.0121 8.07299 35.7207C7.58233 35.4294 7.19133 35.0461 6.89999 34.5707C6.59333 34.0954 6.43999 33.5664 6.43999 32.9837L6.43999 22.9327C6.43999 22.3501 6.59333 21.8211 6.89999 21.3457C7.19133 20.8704 7.58233 20.4871 8.07299 20.1957C8.54833 19.9044 9.08499 19.7587 9.68299 19.7587L19.688 19.7587C20.2553 19.7587 20.792 19.9044 21.298 20.1957C21.804 20.4871 22.218 20.8704 22.54 21.3457C22.8467 21.8211 23 22.3501 23 22.9327L23 32.9837ZM19.826 31.7647L19.826 23.0477C19.826 22.9711 19.803 22.9097 19.757 22.8637C19.6957 22.8024 19.6267 22.7717 19.55 22.7717L12.328 22.7717L19.826 31.7647ZM17.02 33.1447L9.52199 24.1517L9.52199 32.8687C9.52199 32.9454 9.55266 33.0144 9.61399 33.0757C9.65999 33.1217 9.72133 33.1447 9.79799 33.1447L17.02 33.1447ZM23 16.9761L16.652 16.9761C16.054 16.9761 15.5173 16.8304 15.042 16.5391C14.5667 16.2478 14.191 15.8644 13.915 15.3891C13.6237 14.9138 13.478 14.3848 13.478 13.8021L13.478 3.86611C13.478 3.78944 13.455 3.72811 13.409 3.68211C13.3477 3.62077 13.2787 3.59011 13.202 3.59011L9.72899 3.59011C9.65233 3.59011 9.59099 3.62077 9.54499 3.68211C9.48366 3.72811 9.45299 3.78944 9.45299 3.86611L9.45299 13.6871C9.45299 13.7638 9.48366 13.8328 9.54499 13.8941C9.59099 13.9401 9.65233 13.9631 9.72899 13.9631L10.856 13.9631L10.856 16.9761L9.61399 16.9761C9.01599 16.9761 8.47933 16.8304 8.00399 16.5391C7.52866 16.2478 7.15299 15.8644 6.87699 15.3891C6.58566 14.9138 6.43999 14.3848 6.43999 13.8021L6.43999 3.75111C6.43999 3.16844 6.58566 2.63944 6.87699 2.16411C7.15299 1.67344 7.52866 1.29011 8.00399 1.01411C8.47933 0.722775 9.01599 0.577108 9.61399 0.577108L13.34 0.577108C13.9073 0.577108 14.4363 0.722774 14.927 1.01411C15.4023 1.29011 15.7857 1.67344 16.077 2.16411C16.3683 2.63944 16.514 3.16844 16.514 3.75111L16.514 13.6871C16.514 13.7638 16.5447 13.8328 16.606 13.8941C16.652 13.9401 16.7133 13.9631 16.79 13.9631L19.711 13.9631C19.7877 13.9631 19.8567 13.9401 19.918 13.8941C19.964 13.8328 19.987 13.7638 19.987 13.6871L19.987 0.577108L23 0.577107L23 16.9761Z" fill="#EFFFFA"/>
    <rect y="537" width="15" height="160" fill="#EFFFFA"/>
</svg>
